
<svg xmlns="http://www.w3.org/2000/svg" version="1.1" xmlns:xlink="http://www.w3.org/1999/xlink" preserveAspectRatio="none" x="0px" y="0px" width="960px" height="640px" viewBox="0 0 960 640">
<defs>
<image id="Clamp_ai_Layer_1__Compound_Path_" x="0" y="0" width="1104" height="2038" xlink:href="./images/Clamp_ai_Layer_1__Compound_Path_.png"/>

<image id="Clamp_ai_Layer_2__Path__46" x="0" y="0" width="1" height="1" xlink:href="./images/Clamp_ai_Layer_2__Path__46.png"/>

<image id="Clamp_ai_Layer_2__Path__45" x="0" y="0" width="1" height="1" xlink:href="./images/Clamp_ai_Layer_2__Path__45.png"/>

<image id="Clamp_ai_Layer_2__Path__44" x="0" y="0" width="1" height="1" xlink:href="./images/Clamp_ai_Layer_2__Path__44.png"/>

<image id="Clamp_ai_Layer_2__Path__43" x="0" y="0" width="1" height="1" xlink:href="./images/Clamp_ai_Layer_2__Path__43.png"/>

<image id="Clamp_ai_Layer_2__Path__42" x="0" y="0" width="1" height="1" xlink:href="./images/Clamp_ai_Layer_2__Path__42.png"/>

<image id="Clamp_ai_Layer_2__Path__41" x="0" y="0" width="1" height="1" xlink:href="./images/Clamp_ai_Layer_2__Path__41.png"/>

<image id="Clamp_ai_Layer_2__Path__40" x="0" y="0" width="1" height="1" xlink:href="./images/Clamp_ai_Layer_2__Path__40.png"/>

<image id="Clamp_ai_Layer_2__Path__39" x="0" y="0" width="1" height="1" xlink:href="./images/Clamp_ai_Layer_2__Path__39.png"/>

<image id="Clamp_ai_Layer_2__Path__38" x="0" y="0" width="1" height="1" xlink:href="./images/Clamp_ai_Layer_2__Path__38.png"/>

<image id="Clamp_ai_Layer_2__Path__37" x="0" y="0" width="1" height="1" xlink:href="./images/Clamp_ai_Layer_2__Path__37.png"/>

<image id="Clamp_ai_Layer_2__Path__36" x="0" y="0" width="1" height="2" xlink:href="./images/Clamp_ai_Layer_2__Path__36.png"/>

<image id="Clamp_ai_Layer_2__Path__35" x="0" y="0" width="1" height="2" xlink:href="./images/Clamp_ai_Layer_2__Path__35.png"/>

<image id="Clamp_ai_Layer_2__Path__34" x="0" y="0" width="1" height="2" xlink:href="./images/Clamp_ai_Layer_2__Path__34.png"/>

<image id="Clamp_ai_Layer_2__Path__32" x="0" y="0" width="2" height="1" xlink:href="./images/Clamp_ai_Layer_2__Path__32.png"/>

<image id="Clamp_ai_Layer_2__Path__31" x="0" y="0" width="2" height="1" xlink:href="./images/Clamp_ai_Layer_2__Path__31.png"/>

<image id="Clamp_ai_Layer_2__Path__30" x="0" y="0" width="2" height="1" xlink:href="./images/Clamp_ai_Layer_2__Path__30.png"/>

<image id="Clamp_ai_Layer_2__Path__29" x="0" y="0" width="2" height="1" xlink:href="./images/Clamp_ai_Layer_2__Path__29.png"/>

<image id="Clamp_ai_Layer_2__Path__28" x="0" y="0" width="3" height="2" xlink:href="./images/Clamp_ai_Layer_2__Path__28.png"/>

<image id="Clamp_ai_Layer_2__Path__27" x="0" y="0" width="2" height="1" xlink:href="./images/Clamp_ai_Layer_2__Path__27.png"/>

<image id="Clamp_ai_Layer_2__Path__26" x="0" y="0" width="2" height="1" xlink:href="./images/Clamp_ai_Layer_2__Path__26.png"/>

<image id="Clamp_ai_Layer_2__Path__25" x="0" y="0" width="2" height="1" xlink:href="./images/Clamp_ai_Layer_2__Path__25.png"/>

<image id="Clamp_ai_Layer_2__Path__23" x="0" y="0" width="3" height="1" xlink:href="./images/Clamp_ai_Layer_2__Path__23.png"/>

<image id="Clamp_ai_Layer_2__Path__22" x="0" y="0" width="2" height="1" xlink:href="./images/Clamp_ai_Layer_2__Path__22.png"/>

<image id="Clamp_ai_Layer_2__Path__21" x="0" y="0" width="2" height="1" xlink:href="./images/Clamp_ai_Layer_2__Path__21.png"/>

<image id="Clamp_ai_Layer_2__Path__20" x="0" y="0" width="2" height="1" xlink:href="./images/Clamp_ai_Layer_2__Path__20.png"/>

<image id="Clamp_ai_Layer_2__Path__19" x="0" y="0" width="2" height="1" xlink:href="./images/Clamp_ai_Layer_2__Path__19.png"/>

<image id="Clamp_ai_Layer_2__Path__18" x="0" y="0" width="1" height="1" xlink:href="./images/Clamp_ai_Layer_2__Path__18.png"/>

<image id="Clamp_ai_Layer_2__Path__17" x="0" y="0" width="3" height="1" xlink:href="./images/Clamp_ai_Layer_2__Path__17.png"/>

<image id="Clamp_ai_Layer_2__Path__16" x="0" y="0" width="2" height="1" xlink:href="./images/Clamp_ai_Layer_2__Path__16.png"/>

<image id="Clamp_ai_Layer_2__Path__15" x="0" y="0" width="2" height="1" xlink:href="./images/Clamp_ai_Layer_2__Path__15.png"/>

<image id="Clamp_ai_Layer_2__Path__14" x="0" y="0" width="2" height="1" xlink:href="./images/Clamp_ai_Layer_2__Path__14.png"/>

<image id="Clamp_ai_Layer_2__Path__13" x="0" y="0" width="2" height="1" xlink:href="./images/Clamp_ai_Layer_2__Path__13.png"/>

<image id="Clamp_ai_Layer_2__Path__11" x="0" y="0" width="3" height="1" xlink:href="./images/Clamp_ai_Layer_2__Path__11.png"/>

<image id="Clamp_ai_Layer_2__Path__10" x="0" y="0" width="2" height="1" xlink:href="./images/Clamp_ai_Layer_2__Path__10.png"/>

<image id="Clamp_ai_Layer_2__Path__9" x="0" y="0" width="3" height="1" xlink:href="./images/Clamp_ai_Layer_2__Path__9.png"/>

<image id="Clamp_ai_Layer_2__Path__5" x="0" y="0" width="2" height="1" xlink:href="./images/Clamp_ai_Layer_2__Path__5.png"/>

<image id="Clamp_ai_Layer_2__Path__4" x="0" y="0" width="2" height="1" xlink:href="./images/Clamp_ai_Layer_2__Path__4.png"/>

<image id="Clamp_ai_Layer_2__Path__3" x="0" y="0" width="1" height="1" xlink:href="./images/Clamp_ai_Layer_2__Path__3.png"/>

<image id="Clamp_ai_Layer_2__Path__2" x="0" y="0" width="1" height="1" xlink:href="./images/Clamp_ai_Layer_2__Path__2.png"/>

<image id="Clamp_ai_Layer_2__Path__1" x="0" y="0" width="2" height="1" xlink:href="./images/Clamp_ai_Layer_2__Path__1.png"/>

<image id="Clamp_ai_Layer_2__Path_" x="0" y="0" width="2" height="1" xlink:href="./images/Clamp_ai_Layer_2__Path_.png"/>

<g id="Layer1_1_MEMBER_0_MEMBER_0_FILL">
<path fill="#717272" stroke="none" d="
M 549.85 534.8
L 542.35 539.25 1104.1 865.7 1111.6 861.25 1111.9 861.05 550.2 534.65 549.85 534.8 Z"/>
</g>

<g id="Layer1_1_MEMBER_0_MEMBER_1_FILL">
<path fill="#6D6E6E" stroke="none" d="
M 562.7 528.95
L 550.2 534.65 1111.9 861.05 1126.4 854.65 1126.55 854.65 1128.55 854 1128.6 853.95 1130.6 853.35 1130.65 853.35 1132.65 852.85 1132.7 852.8 1134.65 852.35 1134.8 852.3 1136.65 851.95 1136.8 851.9 1140.6 851.3 1140.8 851.3 1142.5 851.1 1142.8 851.1 1144.4 850.95 1146.3 850.9 1146.65 850.85 1149.15 850.85
Q 1149.4 850.9 1150 850.9
L 1151.8 851 1157.6 851.8 1164.6 853.8 1168.35 855.45 1170.5 856.65 1170.65 856.7 607.45 529.45 604.45 528 600.55 526.55 594.55 525.1 589.25 524.5
Q 588.7 524.5 588.4 524.45
L 585.55 524.4
Q 585.25 524.45 584.7 524.45
L 583.7 524.45
Q 583.4 524.5 582.8 524.5
L 577 525.15 568.95 526.9 562.7 528.95 Z"/>
</g>

<g id="Layer1_1_MEMBER_0_MEMBER_2_FILL">
<path fill="#8A8B8C" stroke="none" d="
M 1046.75 1067.8
L 1046.35 1067.6 1046.85 1067.9 1046.75 1067.8
M 482.5 739.7
L 482.6 739.8 1046.35 1067.6 1044.15 1066.1 482.5 739.7 Z"/>
</g>

<g id="Layer1_1_MEMBER_0_MEMBER_3_FILL">
<path fill="#8E8F90" stroke="none" d="
M 480.1 737.85
L 482.25 739.55 1044.15 1066.1 1044 1066 1041.85 1064.3 480.05 737.8 480.1 737.85 Z"/>
</g>

<g id="Layer1_1_MEMBER_0_MEMBER_4_FILL">
<path fill="#929494" stroke="none" d="
M 479.8 737.6
L 480.05 737.8 1041.7 1064.2 1039.65 1062.3 1039.45 1062.15 477.8 735.75
Q 478.462890625 736.45390625 479.8 737.6 Z"/>
</g>

<g id="Layer1_1_MEMBER_0_MEMBER_5_FILL">
<path fill="#969899" stroke="none" d="
M 477.65 735.6
L 477.7 735.7 1039.45 1062.15 1037.35 1059.95 475.65 733.5 475.75 733.65
Q 477.05 735 477.65 735.6 Z"/>
</g>

<g id="Layer1_1_MEMBER_0_MEMBER_6_FILL">
<path fill="#9B9C9D" stroke="none" d="
M 475.55 733.4
L 475.65 733.5 1037.25 1059.9 1035.55 1057.8 1035.35 1057.6 473.65 731.15 473.8 731.35 473.9 731.45
Q 474.9 732.75 475.55 733.4 Z"/>
</g>

<g id="Layer1_1_MEMBER_0_MEMBER_7_FILL">
<path fill="#9FA0A1" stroke="none" d="
M 471.8 728.65
L 473.65 731.15 1035.35 1057.6 1033.6 1055.2 1033.5 1055.1 471.8 728.65 Z"/>
</g>

<g id="Layer1_1_MEMBER_0_MEMBER_8_FILL">
<path fill="#A3A5A5" stroke="none" d="
M 470.1 725.95
L 471.8 728.65 1033.5 1055.1 1033.35 1054.85 1033.35 1054.8 1031.9 1052.5 1031.8 1052.4 470.1 725.95 Z"/>
</g>

<g id="Layer1_1_MEMBER_0_MEMBER_9_FILL">
<path fill="#A7A9AA" stroke="none" d="
M 470.05 725.95
L 470.1 725.95 1031.8 1052.4 1031.8 1052.35 1030.2 1049.5 468.5 723.1 470.05 725.95 Z"/>
</g>

<g id="Layer1_1_MEMBER_0_MEMBER_10_FILL">
<path fill="#ABADAE" stroke="none" d="
M 468.4 722.95
L 468.5 723.1 1030.2 1049.5 1030.15 1049.45 1028.85 1046.7 1028.7 1046.45 467 720 467.1 720.25 468.4 722.95 Z"/>
</g>

<g id="Layer1_1_MEMBER_0_MEMBER_11_FILL">
<path fill="#B0B1B2" stroke="none" d="
M 465.7 716.85
L 467 720 1028.7 1046.45 1028.65 1046.25 1027.45 1043.3 1027.35 1043.1 465.65 716.65 465.7 716.85 Z"/>
</g>

<g id="Layer1_1_MEMBER_0_MEMBER_12_FILL">
<path fill="#B4B5B6" stroke="none" d="
M 464.35 713
L 465.65 716.65 1027.35 1043.1 1026.15 1039.6 1026.1 1039.4 464.35 713 Z"/>
</g>

<g id="Layer1_1_MEMBER_0_MEMBER_13_FILL">
<path fill="#B8BABB" stroke="none" d="
M 464.3 712.7
L 464.35 713 1026.1 1039.4 1026 1039.15 1024.95 1035.45 463.25 709.05 463.3 709.15
Q 463.6 710.4 464.3 712.7 Z"/>
</g>

<g id="Layer1_1_MEMBER_0_MEMBER_14_FILL">
<path fill="#BCBEBF" stroke="none" d="
M 462.25 704.55
L 463.25 709.05 1024.95 1035.45 1024.1 1031.7 1024.05 1031.3 1023.95 1030.95 462.25 704.55 Z"/>
</g>

<g id="Layer1_1_MEMBER_0_MEMBER_15_FILL">
<path fill="#C0C2C3" stroke="none" d="
M 461.45 699.6
L 462.25 704.55 1023.95 1030.95 1023.2 1026.05 461.45 699.6 Z"/>
</g>

<g id="Layer1_1_MEMBER_0_MEMBER_16_FILL">
<path fill="#C4C6C7" stroke="none" d="
M 460.9 694.15
L 461.45 699.6 1023.2 1026.05 1023.1 1025.55 1022.6 1020.6 460.9 694.15 Z"/>
</g>

<g id="Layer1_1_MEMBER_0_MEMBER_17_FILL">
<path fill="#C9CBCC" stroke="none" d="
M 460.7 691.3
L 460.75 691.65
Q 460.8 692.4 460.9 693.95
L 460.9 694.15 1022.6 1020.6 1022.35 1014.9 460.6 688.45 460.7 691.3 Z"/>
</g>

<g id="Layer1_1_MEMBER_0_MEMBER_18_FILL">
<path fill="#CDCFD0" stroke="none" d="
M 460.6 683.3
L 460.6 688.45 1022.35 1014.9 1022.35 1009.45 460.65 683 460.6 683.3 Z"/>
</g>

<g id="Layer1_1_MEMBER_0_MEMBER_19_FILL">
<path fill="#D1D3D4" stroke="none" d="
M 460.85 677.85
L 460.65 683 1022.35 1009.45 1022.55 1004.45 1022.6 1004.25 460.85 677.85 Z"/>
</g>

<g id="Layer1_1_MEMBER_0_MEMBER_20_FILL">
<path fill="#D7D8D9" stroke="none" d="
M 461.2 673.75
L 460.85 677.85 1022.6 1004.25 1022.6 1003.8 1022.9 1000.65 1022.9 1000.2 461.2 673.75 Z"/>
</g>

<g id="Layer1_1_MEMBER_0_MEMBER_21_FILL">
<path fill="#D9DADB" stroke="none" d="
M 461.2 673.5
L 461.2 673.75 1022.9 1000.2 1022.95 999.95 1023.35 996.35 1023.35 996.05 461.65 669.65 461.2 673.5 Z"/>
</g>

<g id="Layer1_1_MEMBER_0_MEMBER_22_FILL">
<path fill="#DBDCDD" stroke="none" d="
M 462.1 666.25
L 461.65 669.65 1023.35 996.05 1023.85 992.7 462.1 666.25 Z"/>
</g>

<g id="Layer1_1_MEMBER_0_MEMBER_23_FILL">
<path fill="#DCDEDE" stroke="none" d="
M 462.65 662.95
L 462.1 666.25 1023.85 992.7 1024.4 989.4 462.65 662.95 Z"/>
</g>

<g id="Layer1_1_MEMBER_0_MEMBER_24_FILL">
<path fill="#DDDFE0" stroke="none" d="
M 463.25 659.7
L 462.65 662.95 1024.4 989.4 1024.4 989.15 1025 986.1 1025 986.05 463.25 659.65 463.25 659.7 Z"/>
</g>

<g id="Layer1_1_MEMBER_0_MEMBER_25_FILL">
<path fill="#DFE0E1" stroke="none" d="
M 463.35 659.3
L 463.25 659.65 1025 986.05 1025.65 982.8 463.95 656.35 463.35 659.3 Z"/>
</g>

<g id="Layer1_1_MEMBER_0_MEMBER_26_FILL">
<path fill="#E0E1E2" stroke="none" d="
M 464.7 653.1
L 463.95 656.35 1025.65 982.8 1026.4 979.55 464.7 653.1 Z"/>
</g>

<g id="Layer1_1_MEMBER_0_MEMBER_27_FILL">
<path fill="#E1E2E3" stroke="none" d="
M 465.7 649.15
L 464.7 653.1 1026.4 979.55 1027.4 975.6 1027.45 975.45 465.75 649 465.7 649.15 Z"/>
</g>

<g id="Layer1_1_MEMBER_0_MEMBER_28_FILL">
<path fill="#E2E3E3" stroke="none" d="
M 465.75 648.95
L 465.75 649 1027.45 975.45 1027.45 975.4 1028.7 970.95 467 644.55 465.75 648.95 Z"/>
</g>

<g id="Layer1_1_MEMBER_0_MEMBER_29_FILL">
<path fill="#E2E4E4" stroke="none" d="
M 469.15 637.6
L 469.05 638 467.1 644.05 467 644.55 1028.7 970.95 1032.95 958.35 1033.1 957.8 471.4 631.4 469.15 637.6 Z"/>
</g>

<g id="Layer1_1_MEMBER_0_MEMBER_30_FILL">
<path fill="#E2E3E3" stroke="none" d="
M 471.55 631.05
L 471.4 631.4 1033.1 957.8 1035.05 952.85 1035.2 952.55 473.45 626.15 473.35 626.45
Q 472.45 628.6 471.55 631.05 Z"/>
</g>

<g id="Layer1_1_MEMBER_0_MEMBER_31_FILL">
<path fill="#E1E2E3" stroke="none" d="
M 474.55 623.5
L 473.45 626.15 1035.2 952.55 1036.3 949.95 474.55 623.5 Z"/>
</g>

<g id="Layer1_1_MEMBER_0_MEMBER_32_FILL">
<path fill="#E0E1E2" stroke="none" d="
M 475.7 620.9
L 474.55 623.5 1036.3 949.95 1037.4 947.35 475.7 620.9 Z"/>
</g>

<g id="Layer1_1_MEMBER_0_MEMBER_33_FILL">
<path fill="#DFE0E1" stroke="none" d="
M 476.65 618.75
L 475.7 620.9 1037.4 947.35 1038.6 944.75 476.9 618.3 476.65 618.75 Z"/>
</g>

<g id="Layer1_1_MEMBER_0_MEMBER_34_FILL">
<path fill="#DDDFE0" stroke="none" d="
M 477.75 616.35
L 476.9 618.3 1038.6 944.75 1039.6 942.55 477.9 616.1 477.75 616.35 Z"/>
</g>

<g id="Layer1_1_MEMBER_0_MEMBER_35_FILL">
<path fill="#DCDEDE" stroke="none" d="
M 478.9 614.05
L 477.9 616.1 1039.6 942.55 1040.6 940.5 478.9 614.05 Z"/>
</g>

<g id="Layer1_1_MEMBER_0_MEMBER_36_FILL">
<path fill="#DBDCDD" stroke="none" d="
M 478.9 614
L 478.9 614.05 1040.6 940.5 1040.65 940.45 1041.6 938.45 479.9 612 478.9 614 Z"/>
</g>

<g id="Layer1_1_MEMBER_0_MEMBER_37_FILL">
<path fill="#D9DADB" stroke="none" d="
M 480.95 609.95
L 479.9 612 1041.6 938.45 1042.65 936.4 480.95 609.95 Z"/>
</g>

<g id="Layer1_1_MEMBER_0_MEMBER_38_FILL">
<path fill="#D7D8D9" stroke="none" d="
M 482 607.95
L 480.95 609.95 1042.65 936.4 1043.7 934.4 482 607.95 Z"/>
</g>

<g id="Layer1_1_MEMBER_0_MEMBER_39_FILL">
<path fill="#D1D3D4" stroke="none" d="
M 483.05 605.95
L 482 607.95 1043.7 934.4 1044.75 932.4 483.05 605.95 Z"/>
</g>

<g id="Layer1_1_MEMBER_0_MEMBER_40_FILL">
<path fill="#CDCFD0" stroke="none" d="
M 484.15 603.95
L 483.05 605.95 1044.75 932.4 1045.85 930.4 484.15 603.95 Z"/>
</g>

<g id="Layer1_1_MEMBER_0_MEMBER_41_FILL">
<path fill="#C9CBCC" stroke="none" d="
M 484.3 603.75
L 484.15 603.95 1045.85 930.4 1047 928.4 485.25 602 484.3 603.75 Z"/>
</g>

<g id="Layer1_1_MEMBER_0_MEMBER_42_FILL">
<path fill="#C4C6C7" stroke="none" d="
M 486.5 599.85
L 485.25 602 1047 928.4 1048.2 926.3 486.5 599.85 Z"/>
</g>

<g id="Layer1_1_MEMBER_0_MEMBER_43_FILL">
<path fill="#C0C2C3" stroke="none" d="
M 487.8 597.65
L 486.5 599.85 1048.2 926.3 1049.55 924.05 487.8 597.65 Z"/>
</g>

<g id="Layer1_1_MEMBER_0_MEMBER_44_FILL">
<path fill="#BCBEBF" stroke="none" d="
M 489 595.7
L 487.8 597.65 1049.55 924.05 1050.9 921.85 489.15 595.4 489 595.7 Z"/>
</g>

<g id="Layer1_1_MEMBER_0_MEMBER_45_FILL">
<path fill="#B8BABB" stroke="none" d="
M 490.55 593.2
L 489.15 595.4 1050.9 921.85 1052.3 919.65 490.55 593.2 Z"/>
</g>

<g id="Layer1_1_MEMBER_0_MEMBER_46_FILL">
<path fill="#B4B5B6" stroke="none" d="
M 492.25 590.55
L 490.55 593.2 1052.3 919.65 1053.85 917.2 1054 917 492.25 590.55 Z"/>
</g>

<g id="Layer1_1_MEMBER_0_MEMBER_47_FILL">
<path fill="#B0B1B2" stroke="none" d="
M 493.8 588.2
L 492.25 590.55 1054 917 1055.75 914.35 494.05 587.9 493.8 588.2 Z"/>
</g>

<g id="Layer1_1_MEMBER_0_MEMBER_48_FILL">
<path fill="#ABADAE" stroke="none" d="
M 495.85 585.3
L 494.05 587.9 1055.75 914.35 1057.55 911.75 495.85 585.3 Z"/>
</g>

<g id="Layer1_1_MEMBER_0_MEMBER_49_FILL">
<path fill="#A7A9AA" stroke="none" d="
M 498.05 582.2
L 495.85 585.3 1057.55 911.75 1059.8 908.6 498.05 582.2 Z"/>
</g>

<g id="Layer1_1_MEMBER_0_MEMBER_50_FILL">
<path fill="#A3A5A5" stroke="none" d="
M 500.35 579.15
L 498.05 582.2 1059.8 908.6 1062.05 905.55 1062.1 905.5 500.35 579.1 500.35 579.15 Z"/>
</g>

<g id="Layer1_1_MEMBER_0_MEMBER_51_FILL">
<path fill="#9FA0A1" stroke="none" d="
M 502.95 575.8
L 500.35 579.1 1062.1 905.5 1064.65 902.25 502.95 575.8 Z"/>
</g>

<g id="Layer1_1_MEMBER_0_MEMBER_52_FILL">
<path fill="#9B9C9D" stroke="none" d="
M 505.55 572.5
L 502.95 575.8 1064.65 902.25 1067.3 898.95 1067.45 898.8 505.7 572.35 505.55 572.5 Z"/>
</g>

<g id="Layer1_1_MEMBER_0_MEMBER_53_FILL">
<path fill="#969899" stroke="none" d="
M 505.75 572.3
L 505.7 572.35 1067.45 898.8 1067.45 898.75 1070.4 895.3 508.7 568.85 505.75 572.3 Z"/>
</g>

<g id="Layer1_1_MEMBER_0_MEMBER_54_FILL">
<path fill="#929494" stroke="none" d="
M 511.85 565.3
L 508.7 568.85 1070.4 895.3 1073.6 891.75 511.85 565.3 Z"/>
</g>

<g id="Layer1_1_MEMBER_0_MEMBER_55_FILL">
<path fill="#8E8F90" stroke="none" d="
M 515.25 561.7
L 511.85 565.3 1073.6 891.75 1076.95 888.15 515.25 561.7 Z"/>
</g>

<g id="Layer1_1_MEMBER_0_MEMBER_56_FILL">
<path fill="#8A8B8C" stroke="none" d="
M 518.8 558.15
L 515.25 561.7 1076.95 888.15 1080.55 884.55 518.8 558.15 Z"/>
</g>

<g id="Layer1_1_MEMBER_0_MEMBER_57_FILL">
<path fill="#868788" stroke="none" d="
M 522.35 554.75
L 518.8 558.15 1080.55 884.55 1084.4 880.9 522.65 554.5 522.35 554.75 Z"/>
</g>

<g id="Layer1_1_MEMBER_0_MEMBER_58_FILL">
<path fill="#828383" stroke="none" d="
M 522.85 554.3
L 522.65 554.5 1084.4 880.9 1084.6 880.75
Q 1086.15 879.25 1088.15 877.6
L 1088.45 877.35 526.7 550.9 522.85 554.3 Z"/>
</g>

<g id="Layer1_1_MEMBER_0_MEMBER_59_FILL">
<path fill="#7D7F7F" stroke="none" d="
M 531.3 547.15
L 526.7 550.9 1088.45 877.35 1088.8 877 1093 873.6 531.3 547.15 Z"/>
</g>

<g id="Layer1_1_MEMBER_0_MEMBER_60_FILL">
<path fill="#797A7B" stroke="none" d="
M 536.4 543.3
L 531.3 547.15 1093 873.6 1093.2 873.4 1098.1 869.75 536.4 543.3 Z"/>
</g>

<g id="Layer1_1_MEMBER_0_MEMBER_61_FILL">
<path fill="#757677" stroke="none" d="
M 542.35 539.25
L 536.4 543.3 1098.1 869.75 1103.65 865.95 1104.1 865.7 542.35 539.25 Z"/>
</g>

<g id="Layer0_0_MEMBER_0_FILL">
<path fill="#87811B" stroke="none" d="
M 658.75 540
L 686.8 523.8 633.95 493.1 623.55 499.1 631.45 503.65 631.1 503.5
Q 640.65 508.95 647.65 518.1 654.75 527.4 658.75 540 Z"/>
</g>

<g id="Layer0_0_MEMBER_1_FILL">
<path fill="#A9A122" stroke="none" d="
M 470.85 771.85
L 464.15 768.05 473.95 773.85 470.85 771.85 Z"/>
</g>

<g id="Layer0_0_MEMBER_2_FILL">
<path fill="#AEA623" stroke="none" d="
M 417.8 741
L 417.8 741.05 470.65 771.7 470.65 771.7 469.2 770.65 469 770.55 467.6 769.45 414.8 738.75 417.8 741 Z"/>
</g>

<g id="Layer0_0_MEMBER_3_FILL">
<path fill="#B3AB24" stroke="none" d="
M 412.1 736.45
L 414.8 738.75 467.6 769.45 467.55 769.4 467.35 769.25 465.7 767.8
Q 465.2 767.4 465 767.15
L 464.75 766.95 411.95 736.25 412.1 736.45 Z"/>
</g>

<g id="Layer0_0_MEMBER_4_FILL">
<path fill="#B8AF25" stroke="none" d="
M 411.65 736
L 411.95 736.25 464.75 766.95 464.55 766.8 462.05 764.3 409.2 733.6 411.65 736 Z"/>
</g>

<g id="Layer0_0_MEMBER_5_FILL">
<path fill="#BDB426" stroke="none" d="
M 409 733.3
L 409.2 733.6 462.05 764.3 461.75 763.9 459.55 761.45 459.55 761.4 406.7 730.7 406.8 730.85 409 733.3 Z"/>
</g>

<g id="Layer0_0_MEMBER_6_FILL">
<path fill="#C2B927" stroke="none" d="
M 404.3 727.6
L 404.5 727.9 406.65 730.65 406.7 730.7 459.55 761.4 459.5 761.35 457.4 758.65 457.35 758.6 457.15 758.3 404.3 727.6 Z"/>
</g>

<g id="Layer0_0_MEMBER_7_FILL">
<path fill="#C7BE28" stroke="none" d="
M 404.15 727.35
L 404.3 727.6 457.15 758.3 454.9 755 402.05 724.3 402.2 724.5
Q 403.1 726 404.15 727.35 Z"/>
</g>

<g id="Layer0_0_MEMBER_8_FILL">
<path fill="#CCC229" stroke="none" d="
M 400 720.75
L 402.05 724.3 454.9 755 454.75 754.7 452.8 751.4 399.95 720.7 400 720.75 Z"/>
</g>

<g id="Layer0_0_MEMBER_9_FILL">
<path fill="#D1C72A" stroke="none" d="
M 398.1 717.1
L 399.95 720.7 452.8 751.4 450.85 747.55 398 716.85 398.1 717.1 Z"/>
</g>

<g id="Layer0_0_MEMBER_10_FILL">
<path fill="#D6CC2B" stroke="none" d="
M 397.9 716.7
L 398 716.85 450.85 747.55 450.75 747.4 448.95 743.25 396.1 712.55 397.9 716.7 Z"/>
</g>

<g id="Layer0_0_MEMBER_11_FILL">
<path fill="#DBD12C" stroke="none" d="
M 396 712.2
L 396.1 712.55 448.95 743.25 448.9 743.05 448.75 742.75 447.85 740.35 447.3 738.65 394.45 707.9 396 712.2 Z"/>
</g>

<g id="Layer0_0_MEMBER_12_FILL">
<path fill="#E0D52D" stroke="none" d="
M 392.85 702.7
L 394.45 707.9 447.3 738.65 447.15 738.3 445.7 733.45 392.85 702.7 Z"/>
</g>

<g id="Layer0_0_MEMBER_13_FILL">
<path fill="#E5DA2E" stroke="none" d="
M 391.45 696.8
L 392.85 702.7 445.7 733.45 445.65 733.1 445.5 732.65 444.95 730.3 444.85 730 444.35 727.55 391.45 696.8 Z"/>
</g>

<g id="Layer0_0_MEMBER_14_FILL">
<path fill="#EADF2F" stroke="none" d="
M 390.35 690.2
L 390.35 690.45 391.45 696.65 391.45 696.8 444.35 727.55 444.3 727.45 444.25 727.25 443.75 724.4 443.7 724.3 443.25 721.15 443.2 720.95 390.35 690.2 Z"/>
</g>

<g id="Layer0_0_MEMBER_15_FILL">
<path fill="#EFE430" stroke="none" d="
M 389.5 682.7
L 390.35 690.2 443.2 720.95 442.65 716.6 442.65 716.4 442.35 713.45 389.5 682.7 Z"/>
</g>

<g id="Layer0_0_MEMBER_16_FILL">
<path fill="#F4E831" stroke="none" d="
M 389.15 674.7
L 389.5 682.7 442.35 713.45 442.15 709.7 442.1 709.45 442 705.4 389.15 674.7 Z"/>
</g>

<g id="Layer0_0_MEMBER_17_FILL">
<path fill="#F9ED32" stroke="none" d="
M 389.15 667.15
L 389.15 674.7 442 705.4 442 698.4 442.05 697.85 389.15 667.15 Z"/>
</g>

<g id="Layer0_0_MEMBER_18_FILL">
<path fill="#FAEF4B" stroke="none" d="
M 389.55 660.15
L 389.15 667.15 442.05 697.85 442.4 690.85 389.55 660.15 Z"/>
</g>

<g id="Layer0_0_MEMBER_19_FILL">
<path fill="#FAF055" stroke="none" d="
M 442.4 690.85
L 442.45 690.45
Q 442.6 687.9 442.9 685.35
L 442.95 684.95 390.05 654.25 390.05 654.65 389.55 659.75 389.55 660.15 442.4 690.85 Z"/>
</g>

<g id="Layer0_0_MEMBER_20_FILL">
<path fill="#FAF15D" stroke="none" d="
M 443.6 679.45
L 443.6 679.4 390.75 648.65 390.75 648.7
Q 390.4 651.2 390.15 653.65
L 390.05 654.25 442.95 684.95 443.6 679.45 Z"/>
</g>

<g id="Layer0_0_MEMBER_21_FILL">
<path fill="#FAF163" stroke="none" d="
M 443.6 679.4
L 443.6 679.35 444.4 674.3 391.55 643.6 390.75 648.65 443.6 679.4 Z"/>
</g>

<g id="Layer0_0_MEMBER_22_FILL">
<path fill="#FBF269" stroke="none" d="
M 444.4 674.3
L 445.35 669.15 392.45 638.45 392.45 638.65 391.55 643.6 444.4 674.3 Z"/>
</g>

<g id="Layer0_0_MEMBER_23_FILL">
<path fill="#FBF26E" stroke="none" d="
M 445.35 669.15
L 445.35 669.1 446.45 663.75 393.6 633.05 392.5 638.4 392.45 638.45 445.35 669.15 Z"/>
</g>

<g id="Layer0_0_MEMBER_24_FILL">
<path fill="#FBF373" stroke="none" d="
M 446.45 663.75
L 447.95 657.55 395.1 626.85 393.6 633.05 446.45 663.75 Z"/>
</g>

<g id="Layer0_0_MEMBER_25_FILL">
<path fill="#FBF378" stroke="none" d="
M 455.1 634.65
L 455.15 634.55 402.25 603.8 396.65 621.05 396.6 621.15 395.1 626.85 447.95 657.55 449.5 651.85 449.5 651.75 455.1 634.65 Z"/>
</g>

<g id="Layer0_0_MEMBER_26_FILL">
<path fill="#FBF373" stroke="none" d="
M 455.15 634.55
L 455.15 634.5 457.1 629.4 404.25 598.65 402.3 603.75 402.25 603.8 455.15 634.55 Z"/>
</g>

<g id="Layer0_0_MEMBER_27_FILL">
<path fill="#FBF26E" stroke="none" d="
M 457.1 629.4
L 458.9 624.95 406.05 594.25 404.25 598.65 457.1 629.4 Z"/>
</g>

<g id="Layer0_0_MEMBER_28_FILL">
<path fill="#FBF269" stroke="none" d="
M 407.4 591
L 406.2 593.8 406.05 594.25 458.9 624.95 459.05 624.5 460.25 621.7 407.4 591 Z"/>
</g>

<g id="Layer0_0_MEMBER_29_FILL">
<path fill="#FAF163" stroke="none" d="
M 408.85 587.75
L 407.4 591 460.25 621.7 461.7 618.5 408.85 587.75 Z"/>
</g>

<g id="Layer0_0_MEMBER_30_FILL">
<path fill="#FAF15D" stroke="none" d="
M 410.3 584.55
L 408.85 587.75 461.7 618.5 463.15 615.25 410.3 584.55 Z"/>
</g>

<g id="Layer0_0_MEMBER_31_FILL">
<path fill="#FAF055" stroke="none" d="
M 411.6 581.75
L 410.3 584.55 463.15 615.25 464.45 612.5 411.6 581.75 Z"/>
</g>

<g id="Layer0_0_MEMBER_32_FILL">
<path fill="#FAEF4B" stroke="none" d="
M 412.95 579
L 411.6 581.75 464.45 612.5 465.8 609.7 412.95 579 Z"/>
</g>

<g id="Layer0_0_MEMBER_33_FILL">
<path fill="#F9ED32" stroke="none" d="
M 414.25 576.4
L 412.95 579 465.8 609.7 467.1 607.1 467.2 606.95 414.35 576.25 414.25 576.4 Z"/>
</g>

<g id="Layer0_0_MEMBER_34_FILL">
<path fill="#F4E831" stroke="none" d="
M 415.75 573.45
L 414.35 576.25 467.2 606.95 468.6 604.2 415.75 573.45 Z"/>
</g>

<g id="Layer0_0_MEMBER_35_FILL">
<path fill="#EFE430" stroke="none" d="
M 415.85 573.3
L 415.75 573.45 468.6 604.2 470.15 601.3 417.3 570.6 415.85 573.3 Z"/>
</g>

<g id="Layer0_0_MEMBER_36_FILL">
<path fill="#EADF2F" stroke="none" d="
M 418.85 567.7
L 417.3 570.6 470.15 601.3 471.7 598.45 418.85 567.7 Z"/>
</g>

<g id="Layer0_0_MEMBER_37_FILL">
<path fill="#E5DA2E" stroke="none" d="
M 420.45 564.9
L 418.85 567.7 471.7 598.45 473.3 595.6 420.45 564.9 Z"/>
</g>

<g id="Layer0_0_MEMBER_38_FILL">
<path fill="#E0D52D" stroke="none" d="
M 422.2 561.85
L 420.45 564.9 473.3 595.6 475.05 592.55 422.2 561.85 Z"/>
</g>

<g id="Layer0_0_MEMBER_39_FILL">
<path fill="#DBD12C" stroke="none" d="
M 424.15 558.55
L 422.2 561.85 475.05 592.55 477 589.3 424.15 558.55 Z"/>
</g>

<g id="Layer0_0_MEMBER_40_FILL">
<path fill="#D6CC2B" stroke="none" d="
M 426.15 555.35
L 424.15 558.55 477 589.3 479 586.05 426.15 555.35 Z"/>
</g>

<g id="Layer0_0_MEMBER_41_FILL">
<path fill="#D1C72A" stroke="none" d="
M 428.3 551.9
L 426.15 555.35 479 586.05 481.15 582.65 428.3 551.9 Z"/>
</g>

<g id="Layer0_0_MEMBER_42_FILL">
<path fill="#CCC229" stroke="none" d="
M 430.8 548.1
L 428.3 551.9 481.15 582.65 483.65 578.8 430.8 548.1 Z"/>
</g>

<g id="Layer0_0_MEMBER_43_FILL">
<path fill="#C7BE28" stroke="none" d="
M 433.4 544.3
L 433.35 544.3 430.8 548.1 483.65 578.8 486.25 575.05 433.4 544.3 Z"/>
</g>

<g id="Layer0_0_MEMBER_44_FILL">
<path fill="#C2B927" stroke="none" d="
M 486.25 575.05
L 486.25 575 489.2 570.85 436.35 540.15 433.4 544.3 486.25 575.05 Z"/>
</g>

<g id="Layer0_0_MEMBER_45_FILL">
<path fill="#BDB426" stroke="none" d="
M 489.2 570.85
L 492.35 566.6 439.5 535.85 436.35 540.15 489.2 570.85 Z"/>
</g>

<g id="Layer0_0_MEMBER_46_FILL">
<path fill="#B8AF25" stroke="none" d="
M 492.35 566.6
L 495.8 562.15 442.9 531.45 439.5 535.85 492.35 566.6 Z"/>
</g>

<g id="Layer0_0_MEMBER_47_FILL">
<path fill="#B3AB24" stroke="none" d="
M 495.8 562.15
L 499.5 557.55 446.65 526.85 442.9 531.45 495.8 562.15 Z"/>
</g>

<g id="Layer0_0_MEMBER_48_FILL">
<path fill="#AEA623" stroke="none" d="
M 499.5 557.55
L 499.55 557.45 503.4 552.95 450.55 522.2 446.7 526.75 446.65 526.85 499.5 557.55 Z"/>
</g>

<g id="Layer0_0_MEMBER_49_FILL">
<path fill="#A9A122" stroke="none" d="
M 503.4 552.95
L 507.6 548.25 454.75 517.55 450.55 522.2 503.4 552.95 Z"/>
</g>

<g id="Layer0_0_MEMBER_50_FILL">
<path fill="#A49C21" stroke="none" d="
M 512 543.6
L 512.1 543.5 459.25 512.8 459.15 512.85 454.75 517.55 507.6 548.25 508 547.85
Q 509.3 546.4 512 543.6 Z"/>
</g>

<g id="Layer0_0_MEMBER_51_FILL">
<path fill="#9F9820" stroke="none" d="
M 512.1 543.5
L 516.8 538.8 463.95 508.1 463.75 508.25 459.4 512.6 459.25 512.8 512.1 543.5 Z"/>
</g>

<g id="Layer0_0_MEMBER_52_FILL">
<path fill="#9A931F" stroke="none" d="
M 516.8 538.8
L 516.9 538.75 522 533.95 469.15 503.2 464 508 463.95 508.1 516.8 538.8 Z"/>
</g>

<g id="Layer0_0_MEMBER_53_FILL">
<path fill="#958E1E" stroke="none" d="
M 527.55 529.1
L 527.6 529.05 474.75 498.35 474.7 498.35 469.15 503.2 522 533.95 522.1 533.85 527.55 529.1 Z"/>
</g>

<g id="Layer0_0_MEMBER_54_FILL">
<path fill="#90891D" stroke="none" d="
M 527.6 529.05
L 533.85 524 481 493.3 480.55 493.6 475.15 497.95 474.75 498.35 527.6 529.05 Z"/>
</g>

<g id="Layer0_0_MEMBER_55_FILL">
<path fill="#8B851C" stroke="none" d="
M 488.55 487.75
L 488.45 487.8 481 493.3 533.85 524 541.3 518.5 541.4 518.45 488.55 487.75 Z"/>
</g>

<g id="Layer0_0_MEMBER_56_FILL">
<path fill="#86801B" stroke="none" d="
M 498.25 481.55
L 488.55 487.75 541.4 518.45 551.1 512.25 498.25 481.55 Z"/>
</g>

<g id="Layer0_0_MEMBER_57_FILL">
<path fill="#817B1A" stroke="none" d="
M 499.65 480.7
L 498.25 481.55 551.1 512.25 565.35 504.85 565.5 504.8 565.65 504.7 580.1 499.45 591.45 497 600.7 496.2 607.9 496.45 608.1 496.45 616.8 497.85 617.15 497.95 617.2 497.95 621.15 499.1 621.45 499.15 624.3 500.25 625.65 500.75 627.5 501.6 627.65 501.65 631.1 503.5 631.45 503.65 578.6 472.95
Q 563.15 464 543.1 465.75 522.4 467.6 499.65 480.7 Z"/>
</g>

<g id="Layer0_0_MEMBER_58_FILL">
<path fill="#7D7719" stroke="none" d="
M 686.8 523.8
L 658.75 540
Q 654.75 527.4 647.65 518.1 640.65 508.95 631.1 503.5
L 627.9 501.8 627.65 501.65 627.5 501.6 625.65 500.75 624.3 500.25 623.15 499.75 614.5 497.35 608.1 496.45 607.9 496.45 600.7 496.2 595.45 496.5 585.2 498.15 575.15 501 565.65 504.7 565.5 504.8 565.35 504.85 558.75 508 546.45 515.1 541.3 518.5 537 521.6 519.45 536.25 516.9 538.75 516.6 539 512 543.6
Q 509.3 546.4 508 547.85
L 503.75 552.55 486.25 575 486.25 575.05 472.05 597.8 459.05 624.5 451.35 645.6 449.5 651.75 449.5 651.85 448.1 656.95 443.6 679.35 443.6 679.45 442.9 685.35
Q 442.6 687.9 442.45 690.45
L 442.1 709.45 442.15 709.7 442.65 716.4 442.65 716.6 444.25 727.25 444.85 730 444.95 730.3 445.15 731.25 448.75 742.75 450.75 747.4 450.85 747.55 454.75 754.7 454.8 754.8 457.35 758.6 457.4 758.65 459.5 761.4 459.55 761.45 462.5 764.75 467.35 769.25 469.1 770.6 469.2 770.65 473.55 773.6
Q 486.8 781.6 503.65 781.55 520.95 781.5 540.2 773
L 493.35 745.75 491.55 744.8
Q 484.6 740.8 479.2 734.05
L 479.15 733.95 477.15 731.25 477 731
Q 476.65 730.55 475.45 728.6
L 475.4 728.55 473.95 725.95 473.85 725.7 473.75 725.55 472.45 722.85 471.05 719.45 471 719.25 469.7 715.6 469.65 715.35 467.65 707.45 466.25 696.8 466.25 696.6
Q 466.25 696.55 466.1 694.25
L 466.05 693.95 465.95 685.9 466 685.65 466.2 680.45 466.55 676.35 466.55 676.15 467.45 668.9 468 665.55 468.05 665.35 468.6 662.3 468.6 662.25 468.7 661.9 471.1 651.6 471.1 651.55 476.75 634 476.9 633.65
Q 477.6 631.65 478.7 629.05
L 478.8 628.75 484.25 616.65 484.25 616.6 494.35 598.3 494.5 598 499.15 590.85 499.4 590.55 503.4 584.8 505.7 581.75 505.7 581.7 510.9 575.15 511.1 574.95 517.05 568.1 517.2 567.9 520.6 564.35 520.6 564.3 532.05 553.5 539.2 547.75 547.7 541.85 550.15 540.3 557.3 536.3 568.05 531.55 572.25 530.15
Q 573.4 529.75 574.3 529.55
L 582.35 527.75 588.15 527.15
Q 588.45 527.1 589.05 527.1
L 593.75 527.1
Q 594.3 527.1 594.6 527.15 595.25 527.15 595.55 527.2
L 596.4 527.25 601.65 528.05 605 528.9 610.7 531.05 686.95 575.1 686.8 523.8 Z"/>
</g>

<path id="Layer0_0_MEMBER_72_1_STROKES" stroke="#7D7719" stroke-width="0.05" stroke-linejoin="round" stroke-linecap="round" fill="none" d="
M 442.05 707.35
L 442 706.15"/>

<path id="Layer0_0_MEMBER_81_1_STROKES" stroke="#7D7719" stroke-width="0.05" stroke-linejoin="round" stroke-linecap="round" fill="none" d="
M 601.45 496.2
L 602.95 496.2"/>

<path id="Layer0_0_MEMBER_93_1_STROKES" stroke="#7D7719" stroke-width="0.05" stroke-linejoin="round" stroke-linecap="round" fill="none" d="
M 600.7 496.2
L 598.65 496.3"/>

<path id="Layer0_0_MEMBER_97_1_STROKES" stroke="#7D7719" stroke-width="0.05" stroke-linejoin="round" stroke-linecap="round" fill="none" d="
M 598.45 496.3
L 597.05 496.4"/>

<path id="Layer0_0_MEMBER_98_1_STROKES" stroke="#7D7719" stroke-width="0.05" stroke-linejoin="round" stroke-linecap="round" fill="none" d="
M 596.15 496.45
L 597.05 496.4"/>

<path id="Layer0_0_MEMBER_99_1_STROKES" stroke="#7D7719" stroke-width="0.05" stroke-linejoin="round" stroke-linecap="round" fill="none" d="
M 603.75 496.2
L 605.25 496.25"/>
</defs>

<g transform="matrix( 1, 0, 0, 1, -119,-810) ">
<use xlink:href="#Clamp_ai_Layer_1__Compound_Path_"/>
</g>

<g transform="matrix( 1, 0, 0, 1, 0,-196.95) ">
<use xlink:href="#Layer1_1_MEMBER_0_MEMBER_0_FILL"/>
</g>

<g transform="matrix( 1, 0, 0, 1, 0,-196.95) ">
<use xlink:href="#Layer1_1_MEMBER_0_MEMBER_1_FILL"/>
</g>

<g transform="matrix( 1, 0, 0, 1, 0,-196.95) ">
<use xlink:href="#Layer1_1_MEMBER_0_MEMBER_2_FILL"/>
</g>

<g transform="matrix( 1, 0, 0, 1, 0,-196.95) ">
<use xlink:href="#Layer1_1_MEMBER_0_MEMBER_3_FILL"/>
</g>

<g transform="matrix( 1, 0, 0, 1, 0,-196.95) ">
<use xlink:href="#Layer1_1_MEMBER_0_MEMBER_4_FILL"/>
</g>

<g transform="matrix( 1, 0, 0, 1, 0,-196.95) ">
<use xlink:href="#Layer1_1_MEMBER_0_MEMBER_5_FILL"/>
</g>

<g transform="matrix( 1, 0, 0, 1, 0,-196.95) ">
<use xlink:href="#Layer1_1_MEMBER_0_MEMBER_6_FILL"/>
</g>

<g transform="matrix( 1, 0, 0, 1, 0,-196.95) ">
<use xlink:href="#Layer1_1_MEMBER_0_MEMBER_7_FILL"/>
</g>

<g transform="matrix( 1, 0, 0, 1, 0,-196.95) ">
<use xlink:href="#Layer1_1_MEMBER_0_MEMBER_8_FILL"/>
</g>

<g transform="matrix( 1, 0, 0, 1, 0,-196.95) ">
<use xlink:href="#Layer1_1_MEMBER_0_MEMBER_9_FILL"/>
</g>

<g transform="matrix( 1, 0, 0, 1, 0,-196.95) ">
<use xlink:href="#Layer1_1_MEMBER_0_MEMBER_10_FILL"/>
</g>

<g transform="matrix( 1, 0, 0, 1, 0,-196.95) ">
<use xlink:href="#Layer1_1_MEMBER_0_MEMBER_11_FILL"/>
</g>

<g transform="matrix( 1, 0, 0, 1, 0,-196.95) ">
<use xlink:href="#Layer1_1_MEMBER_0_MEMBER_12_FILL"/>
</g>

<g transform="matrix( 1, 0, 0, 1, 0,-196.95) ">
<use xlink:href="#Layer1_1_MEMBER_0_MEMBER_13_FILL"/>
</g>

<g transform="matrix( 1, 0, 0, 1, 0,-196.95) ">
<use xlink:href="#Layer1_1_MEMBER_0_MEMBER_14_FILL"/>
</g>

<g transform="matrix( 1, 0, 0, 1, 0,-196.95) ">
<use xlink:href="#Layer1_1_MEMBER_0_MEMBER_15_FILL"/>
</g>

<g transform="matrix( 1, 0, 0, 1, 0,-196.95) ">
<use xlink:href="#Layer1_1_MEMBER_0_MEMBER_16_FILL"/>
</g>

<g transform="matrix( 1, 0, 0, 1, 0,-196.95) ">
<use xlink:href="#Layer1_1_MEMBER_0_MEMBER_17_FILL"/>
</g>

<g transform="matrix( 1, 0, 0, 1, 0,-196.95) ">
<use xlink:href="#Layer1_1_MEMBER_0_MEMBER_18_FILL"/>
</g>

<g transform="matrix( 1, 0, 0, 1, 0,-196.95) ">
<use xlink:href="#Layer1_1_MEMBER_0_MEMBER_19_FILL"/>
</g>

<g transform="matrix( 1, 0, 0, 1, 0,-196.95) ">
<use xlink:href="#Layer1_1_MEMBER_0_MEMBER_20_FILL"/>
</g>

<g transform="matrix( 1, 0, 0, 1, 0,-196.95) ">
<use xlink:href="#Layer1_1_MEMBER_0_MEMBER_21_FILL"/>
</g>

<g transform="matrix( 1, 0, 0, 1, 0,-196.95) ">
<use xlink:href="#Layer1_1_MEMBER_0_MEMBER_22_FILL"/>
</g>

<g transform="matrix( 1, 0, 0, 1, 0,-196.95) ">
<use xlink:href="#Layer1_1_MEMBER_0_MEMBER_23_FILL"/>
</g>

<g transform="matrix( 1, 0, 0, 1, 0,-196.95) ">
<use xlink:href="#Layer1_1_MEMBER_0_MEMBER_24_FILL"/>
</g>

<g transform="matrix( 1, 0, 0, 1, 0,-196.95) ">
<use xlink:href="#Layer1_1_MEMBER_0_MEMBER_25_FILL"/>
</g>

<g transform="matrix( 1, 0, 0, 1, 0,-196.95) ">
<use xlink:href="#Layer1_1_MEMBER_0_MEMBER_26_FILL"/>
</g>

<g transform="matrix( 1, 0, 0, 1, 0,-196.95) ">
<use xlink:href="#Layer1_1_MEMBER_0_MEMBER_27_FILL"/>
</g>

<g transform="matrix( 1, 0, 0, 1, 0,-196.95) ">
<use xlink:href="#Layer1_1_MEMBER_0_MEMBER_28_FILL"/>
</g>

<g transform="matrix( 1, 0, 0, 1, 0,-196.95) ">
<use xlink:href="#Layer1_1_MEMBER_0_MEMBER_29_FILL"/>
</g>

<g transform="matrix( 1, 0, 0, 1, 0,-196.95) ">
<use xlink:href="#Layer1_1_MEMBER_0_MEMBER_30_FILL"/>
</g>

<g transform="matrix( 1, 0, 0, 1, 0,-196.95) ">
<use xlink:href="#Layer1_1_MEMBER_0_MEMBER_31_FILL"/>
</g>

<g transform="matrix( 1, 0, 0, 1, 0,-196.95) ">
<use xlink:href="#Layer1_1_MEMBER_0_MEMBER_32_FILL"/>
</g>

<g transform="matrix( 1, 0, 0, 1, 0,-196.95) ">
<use xlink:href="#Layer1_1_MEMBER_0_MEMBER_33_FILL"/>
</g>

<g transform="matrix( 1, 0, 0, 1, 0,-196.95) ">
<use xlink:href="#Layer1_1_MEMBER_0_MEMBER_34_FILL"/>
</g>

<g transform="matrix( 1, 0, 0, 1, 0,-196.95) ">
<use xlink:href="#Layer1_1_MEMBER_0_MEMBER_35_FILL"/>
</g>

<g transform="matrix( 1, 0, 0, 1, 0,-196.95) ">
<use xlink:href="#Layer1_1_MEMBER_0_MEMBER_36_FILL"/>
</g>

<g transform="matrix( 1, 0, 0, 1, 0,-196.95) ">
<use xlink:href="#Layer1_1_MEMBER_0_MEMBER_37_FILL"/>
</g>

<g transform="matrix( 1, 0, 0, 1, 0,-196.95) ">
<use xlink:href="#Layer1_1_MEMBER_0_MEMBER_38_FILL"/>
</g>

<g transform="matrix( 1, 0, 0, 1, 0,-196.95) ">
<use xlink:href="#Layer1_1_MEMBER_0_MEMBER_39_FILL"/>
</g>

<g transform="matrix( 1, 0, 0, 1, 0,-196.95) ">
<use xlink:href="#Layer1_1_MEMBER_0_MEMBER_40_FILL"/>
</g>

<g transform="matrix( 1, 0, 0, 1, 0,-196.95) ">
<use xlink:href="#Layer1_1_MEMBER_0_MEMBER_41_FILL"/>
</g>

<g transform="matrix( 1, 0, 0, 1, 0,-196.95) ">
<use xlink:href="#Layer1_1_MEMBER_0_MEMBER_42_FILL"/>
</g>

<g transform="matrix( 1, 0, 0, 1, 0,-196.95) ">
<use xlink:href="#Layer1_1_MEMBER_0_MEMBER_43_FILL"/>
</g>

<g transform="matrix( 1, 0, 0, 1, 0,-196.95) ">
<use xlink:href="#Layer1_1_MEMBER_0_MEMBER_44_FILL"/>
</g>

<g transform="matrix( 1, 0, 0, 1, 0,-196.95) ">
<use xlink:href="#Layer1_1_MEMBER_0_MEMBER_45_FILL"/>
</g>

<g transform="matrix( 1, 0, 0, 1, 0,-196.95) ">
<use xlink:href="#Layer1_1_MEMBER_0_MEMBER_46_FILL"/>
</g>

<g transform="matrix( 1, 0, 0, 1, 0,-196.95) ">
<use xlink:href="#Layer1_1_MEMBER_0_MEMBER_47_FILL"/>
</g>

<g transform="matrix( 1, 0, 0, 1, 0,-196.95) ">
<use xlink:href="#Layer1_1_MEMBER_0_MEMBER_48_FILL"/>
</g>

<g transform="matrix( 1, 0, 0, 1, 0,-196.95) ">
<use xlink:href="#Layer1_1_MEMBER_0_MEMBER_49_FILL"/>
</g>

<g transform="matrix( 1, 0, 0, 1, 0,-196.95) ">
<use xlink:href="#Layer1_1_MEMBER_0_MEMBER_50_FILL"/>
</g>

<g transform="matrix( 1, 0, 0, 1, 0,-196.95) ">
<use xlink:href="#Layer1_1_MEMBER_0_MEMBER_51_FILL"/>
</g>

<g transform="matrix( 1, 0, 0, 1, 0,-196.95) ">
<use xlink:href="#Layer1_1_MEMBER_0_MEMBER_52_FILL"/>
</g>

<g transform="matrix( 1, 0, 0, 1, 0,-196.95) ">
<use xlink:href="#Layer1_1_MEMBER_0_MEMBER_53_FILL"/>
</g>

<g transform="matrix( 1, 0, 0, 1, 0,-196.95) ">
<use xlink:href="#Layer1_1_MEMBER_0_MEMBER_54_FILL"/>
</g>

<g transform="matrix( 1, 0, 0, 1, 0,-196.95) ">
<use xlink:href="#Layer1_1_MEMBER_0_MEMBER_55_FILL"/>
</g>

<g transform="matrix( 1, 0, 0, 1, 0,-196.95) ">
<use xlink:href="#Layer1_1_MEMBER_0_MEMBER_56_FILL"/>
</g>

<g transform="matrix( 1, 0, 0, 1, 0,-196.95) ">
<use xlink:href="#Layer1_1_MEMBER_0_MEMBER_57_FILL"/>
</g>

<g transform="matrix( 1, 0, 0, 1, 0,-196.95) ">
<use xlink:href="#Layer1_1_MEMBER_0_MEMBER_58_FILL"/>
</g>

<g transform="matrix( 1, 0, 0, 1, 0,-196.95) ">
<use xlink:href="#Layer1_1_MEMBER_0_MEMBER_59_FILL"/>
</g>

<g transform="matrix( 1, 0, 0, 1, 0,-196.95) ">
<use xlink:href="#Layer1_1_MEMBER_0_MEMBER_60_FILL"/>
</g>

<g transform="matrix( 1, 0, 0, 1, 0,-196.95) ">
<use xlink:href="#Layer1_1_MEMBER_0_MEMBER_61_FILL"/>
</g>

<g transform="matrix( 1, 0, 0, 1, 0,-196.95) ">
<use xlink:href="#Layer0_0_MEMBER_0_FILL"/>
</g>

<g transform="matrix( 1, 0, 0, 1, 0,-196.95) ">
<use xlink:href="#Layer0_0_MEMBER_1_FILL"/>
</g>

<g transform="matrix( 1, 0, 0, 1, 0,-196.95) ">
<use xlink:href="#Layer0_0_MEMBER_2_FILL"/>
</g>

<g transform="matrix( 1, 0, 0, 1, 0,-196.95) ">
<use xlink:href="#Layer0_0_MEMBER_3_FILL"/>
</g>

<g transform="matrix( 1, 0, 0, 1, 0,-196.95) ">
<use xlink:href="#Layer0_0_MEMBER_4_FILL"/>
</g>

<g transform="matrix( 1, 0, 0, 1, 0,-196.95) ">
<use xlink:href="#Layer0_0_MEMBER_5_FILL"/>
</g>

<g transform="matrix( 1, 0, 0, 1, 0,-196.95) ">
<use xlink:href="#Layer0_0_MEMBER_6_FILL"/>
</g>

<g transform="matrix( 1, 0, 0, 1, 0,-196.95) ">
<use xlink:href="#Layer0_0_MEMBER_7_FILL"/>
</g>

<g transform="matrix( 1, 0, 0, 1, 0,-196.95) ">
<use xlink:href="#Layer0_0_MEMBER_8_FILL"/>
</g>

<g transform="matrix( 1, 0, 0, 1, 0,-196.95) ">
<use xlink:href="#Layer0_0_MEMBER_9_FILL"/>
</g>

<g transform="matrix( 1, 0, 0, 1, 0,-196.95) ">
<use xlink:href="#Layer0_0_MEMBER_10_FILL"/>
</g>

<g transform="matrix( 1, 0, 0, 1, 0,-196.95) ">
<use xlink:href="#Layer0_0_MEMBER_11_FILL"/>
</g>

<g transform="matrix( 1, 0, 0, 1, 0,-196.95) ">
<use xlink:href="#Layer0_0_MEMBER_12_FILL"/>
</g>

<g transform="matrix( 1, 0, 0, 1, 0,-196.95) ">
<use xlink:href="#Layer0_0_MEMBER_13_FILL"/>
</g>

<g transform="matrix( 1, 0, 0, 1, 0,-196.95) ">
<use xlink:href="#Layer0_0_MEMBER_14_FILL"/>
</g>

<g transform="matrix( 1, 0, 0, 1, 0,-196.95) ">
<use xlink:href="#Layer0_0_MEMBER_15_FILL"/>
</g>

<g transform="matrix( 1, 0, 0, 1, 0,-196.95) ">
<use xlink:href="#Layer0_0_MEMBER_16_FILL"/>
</g>

<g transform="matrix( 1, 0, 0, 1, 0,-196.95) ">
<use xlink:href="#Layer0_0_MEMBER_17_FILL"/>
</g>

<g transform="matrix( 1, 0, 0, 1, 0,-196.95) ">
<use xlink:href="#Layer0_0_MEMBER_18_FILL"/>
</g>

<g transform="matrix( 1, 0, 0, 1, 0,-196.95) ">
<use xlink:href="#Layer0_0_MEMBER_19_FILL"/>
</g>

<g transform="matrix( 1, 0, 0, 1, 0,-196.95) ">
<use xlink:href="#Layer0_0_MEMBER_20_FILL"/>
</g>

<g transform="matrix( 1, 0, 0, 1, 0,-196.95) ">
<use xlink:href="#Layer0_0_MEMBER_21_FILL"/>
</g>

<g transform="matrix( 1, 0, 0, 1, 0,-196.95) ">
<use xlink:href="#Layer0_0_MEMBER_22_FILL"/>
</g>

<g transform="matrix( 1, 0, 0, 1, 0,-196.95) ">
<use xlink:href="#Layer0_0_MEMBER_23_FILL"/>
</g>

<g transform="matrix( 1, 0, 0, 1, 0,-196.95) ">
<use xlink:href="#Layer0_0_MEMBER_24_FILL"/>
</g>

<g transform="matrix( 1, 0, 0, 1, 0,-196.95) ">
<use xlink:href="#Layer0_0_MEMBER_25_FILL"/>
</g>

<g transform="matrix( 1, 0, 0, 1, 0,-196.95) ">
<use xlink:href="#Layer0_0_MEMBER_26_FILL"/>
</g>

<g transform="matrix( 1, 0, 0, 1, 0,-196.95) ">
<use xlink:href="#Layer0_0_MEMBER_27_FILL"/>
</g>

<g transform="matrix( 1, 0, 0, 1, 0,-196.95) ">
<use xlink:href="#Layer0_0_MEMBER_28_FILL"/>
</g>

<g transform="matrix( 1, 0, 0, 1, 0,-196.95) ">
<use xlink:href="#Layer0_0_MEMBER_29_FILL"/>
</g>

<g transform="matrix( 1, 0, 0, 1, 0,-196.95) ">
<use xlink:href="#Layer0_0_MEMBER_30_FILL"/>
</g>

<g transform="matrix( 1, 0, 0, 1, 0,-196.95) ">
<use xlink:href="#Layer0_0_MEMBER_31_FILL"/>
</g>

<g transform="matrix( 1, 0, 0, 1, 0,-196.95) ">
<use xlink:href="#Layer0_0_MEMBER_32_FILL"/>
</g>

<g transform="matrix( 1, 0, 0, 1, 0,-196.95) ">
<use xlink:href="#Layer0_0_MEMBER_33_FILL"/>
</g>

<g transform="matrix( 1, 0, 0, 1, 0,-196.95) ">
<use xlink:href="#Layer0_0_MEMBER_34_FILL"/>
</g>

<g transform="matrix( 1, 0, 0, 1, 0,-196.95) ">
<use xlink:href="#Layer0_0_MEMBER_35_FILL"/>
</g>

<g transform="matrix( 1, 0, 0, 1, 0,-196.95) ">
<use xlink:href="#Layer0_0_MEMBER_36_FILL"/>
</g>

<g transform="matrix( 1, 0, 0, 1, 0,-196.95) ">
<use xlink:href="#Layer0_0_MEMBER_37_FILL"/>
</g>

<g transform="matrix( 1, 0, 0, 1, 0,-196.95) ">
<use xlink:href="#Layer0_0_MEMBER_38_FILL"/>
</g>

<g transform="matrix( 1, 0, 0, 1, 0,-196.95) ">
<use xlink:href="#Layer0_0_MEMBER_39_FILL"/>
</g>

<g transform="matrix( 1, 0, 0, 1, 0,-196.95) ">
<use xlink:href="#Layer0_0_MEMBER_40_FILL"/>
</g>

<g transform="matrix( 1, 0, 0, 1, 0,-196.95) ">
<use xlink:href="#Layer0_0_MEMBER_41_FILL"/>
</g>

<g transform="matrix( 1, 0, 0, 1, 0,-196.95) ">
<use xlink:href="#Layer0_0_MEMBER_42_FILL"/>
</g>

<g transform="matrix( 1, 0, 0, 1, 0,-196.95) ">
<use xlink:href="#Layer0_0_MEMBER_43_FILL"/>
</g>

<g transform="matrix( 1, 0, 0, 1, 0,-196.95) ">
<use xlink:href="#Layer0_0_MEMBER_44_FILL"/>
</g>

<g transform="matrix( 1, 0, 0, 1, 0,-196.95) ">
<use xlink:href="#Layer0_0_MEMBER_45_FILL"/>
</g>

<g transform="matrix( 1, 0, 0, 1, 0,-196.95) ">
<use xlink:href="#Layer0_0_MEMBER_46_FILL"/>
</g>

<g transform="matrix( 1, 0, 0, 1, 0,-196.95) ">
<use xlink:href="#Layer0_0_MEMBER_47_FILL"/>
</g>

<g transform="matrix( 1, 0, 0, 1, 0,-196.95) ">
<use xlink:href="#Layer0_0_MEMBER_48_FILL"/>
</g>

<g transform="matrix( 1, 0, 0, 1, 0,-196.95) ">
<use xlink:href="#Layer0_0_MEMBER_49_FILL"/>
</g>

<g transform="matrix( 1, 0, 0, 1, 0,-196.95) ">
<use xlink:href="#Layer0_0_MEMBER_50_FILL"/>
</g>

<g transform="matrix( 1, 0, 0, 1, 0,-196.95) ">
<use xlink:href="#Layer0_0_MEMBER_51_FILL"/>
</g>

<g transform="matrix( 1, 0, 0, 1, 0,-196.95) ">
<use xlink:href="#Layer0_0_MEMBER_52_FILL"/>
</g>

<g transform="matrix( 1, 0, 0, 1, 0,-196.95) ">
<use xlink:href="#Layer0_0_MEMBER_53_FILL"/>
</g>

<g transform="matrix( 1, 0, 0, 1, 0,-196.95) ">
<use xlink:href="#Layer0_0_MEMBER_54_FILL"/>
</g>

<g transform="matrix( 1, 0, 0, 1, 0,-196.95) ">
<use xlink:href="#Layer0_0_MEMBER_55_FILL"/>
</g>

<g transform="matrix( 1, 0, 0, 1, 0,-196.95) ">
<use xlink:href="#Layer0_0_MEMBER_56_FILL"/>
</g>

<g transform="matrix( 1, 0, 0, 1, 0,-196.95) ">
<use xlink:href="#Layer0_0_MEMBER_57_FILL"/>
</g>

<g transform="matrix( 1, 0, 0, 1, 0,-196.95) ">
<use xlink:href="#Layer0_0_MEMBER_58_FILL"/>
</g>

<g transform="matrix( 1, 0, 0, 1, 492.3,548.25) ">
<use xlink:href="#Clamp_ai_Layer_2__Path__46"/>
</g>

<g transform="matrix( 1, 0, 0, 1, 470.85,574.9) ">
<use xlink:href="#Clamp_ai_Layer_2__Path__45"/>
</g>

<g transform="matrix( 1, 0, 0, 1, 469.2,573.7) ">
<use xlink:href="#Clamp_ai_Layer_2__Path__44"/>
</g>

<g transform="matrix( 1, 0, 0, 1, 465.7,570.85) ">
<use xlink:href="#Clamp_ai_Layer_2__Path__43"/>
</g>

<g transform="matrix( 1, 0, 0, 1, 462.5,567.8) ">
<use xlink:href="#Clamp_ai_Layer_2__Path__42"/>
</g>

<g transform="matrix( 1, 0, 0, 1, 461,566.15) ">
<use xlink:href="#Clamp_ai_Layer_2__Path__41"/>
</g>

<g transform="matrix( 1, 0, 0, 1, 458.1,562.65) ">
<use xlink:href="#Clamp_ai_Layer_2__Path__40"/>
</g>

<g transform="matrix( 1, 0, 0, 1, 455.45,558.85) ">
<use xlink:href="#Clamp_ai_Layer_2__Path__39"/>
</g>

<g transform="matrix( 1, 0, 0, 1, 453,554.8) ">
<use xlink:href="#Clamp_ai_Layer_2__Path__38"/>
</g>

<g transform="matrix( 1, 0, 0, 1, 451.85,552.65) ">
<use xlink:href="#Clamp_ai_Layer_2__Path__37"/>
</g>

<g transform="matrix( 1, 0, 0, 1, 443.3,524.6) ">
<use xlink:href="#Clamp_ai_Layer_2__Path__36"/>
</g>

<g transform="matrix( 1, 0, 0, 1, 443.75,527.45) ">
<use xlink:href="#Clamp_ai_Layer_2__Path__35"/>
</g>

<g transform="matrix( 1, 0, 0, 1, 442.9,521.65) ">
<use xlink:href="#Clamp_ai_Layer_2__Path__34"/>
</g>

<g transform="matrix( 1, 0, 0, 1, 0,-196.95) ">
<use xlink:href="#Layer0_0_MEMBER_72_1_STROKES"/>
</g>

<g transform="matrix( 1, 0, 0, 1, 591.45,299.85) ">
<use xlink:href="#Clamp_ai_Layer_2__Path__32"/>
</g>

<g transform="matrix( 1, 0, 0, 1, 556,311.55) ">
<use xlink:href="#Clamp_ai_Layer_2__Path__31"/>
</g>

<g transform="matrix( 1, 0, 0, 1, 567.3,306.3) ">
<use xlink:href="#Clamp_ai_Layer_2__Path__30"/>
</g>

<g transform="matrix( 1, 0, 0, 1, 593.85,299.55) ">
<use xlink:href="#Clamp_ai_Layer_2__Path__29"/>
</g>

<g transform="matrix( 1, 0, 0, 1, 552.55,312.95) ">
<use xlink:href="#Clamp_ai_Layer_2__Path__28"/>
</g>

<g transform="matrix( 1, 0, 0, 1, 578.25,302.5) ">
<use xlink:href="#Clamp_ai_Layer_2__Path__27"/>
</g>

<g transform="matrix( 1, 0, 0, 1, 580.95,301.85) ">
<use xlink:href="#Clamp_ai_Layer_2__Path__26"/>
</g>

<g transform="matrix( 1, 0, 0, 1, 558.75,310.15) ">
<use xlink:href="#Clamp_ai_Layer_2__Path__25"/>
</g>

<g transform="matrix( 1, 0, 0, 1, 0,-196.95) ">
<use xlink:href="#Layer0_0_MEMBER_81_1_STROKES"/>
</g>

<g transform="matrix( 1, 0, 0, 1, 585.9,300.6) ">
<use xlink:href="#Clamp_ai_Layer_2__Path__23"/>
</g>

<g transform="matrix( 1, 0, 0, 1, 570.05,305.25) ">
<use xlink:href="#Clamp_ai_Layer_2__Path__22"/>
</g>

<g transform="matrix( 1, 0, 0, 1, 588.7,300.2) ">
<use xlink:href="#Clamp_ai_Layer_2__Path__21"/>
</g>

<g transform="matrix( 1, 0, 0, 1, 619.75,301.7) ">
<use xlink:href="#Clamp_ai_Layer_2__Path__20"/>
</g>

<g transform="matrix( 1, 0, 0, 1, 617.2,301) ">
<use xlink:href="#Clamp_ai_Layer_2__Path__19"/>
</g>

<g transform="matrix( 1, 0, 0, 1, 618.35,301.3) ">
<use xlink:href="#Clamp_ai_Layer_2__Path__18"/>
</g>

<g transform="matrix( 1, 0, 0, 1, 575.15,303.25) ">
<use xlink:href="#Clamp_ai_Layer_2__Path__17"/>
</g>

<g transform="matrix( 1, 0, 0, 1, 572.6,304.25) ">
<use xlink:href="#Clamp_ai_Layer_2__Path__16"/>
</g>

<g transform="matrix( 1, 0, 0, 1, 583.45,301.2) ">
<use xlink:href="#Clamp_ai_Layer_2__Path__15"/>
</g>

<g transform="matrix( 1, 0, 0, 1, 615.2,300.55) ">
<use xlink:href="#Clamp_ai_Layer_2__Path__14"/>
</g>

<g transform="matrix( 1, 0, 0, 1, 613.1,300.15) ">
<use xlink:href="#Clamp_ai_Layer_2__Path__13"/>
</g>

<g transform="matrix( 1, 0, 0, 1, 0,-196.95) ">
<use xlink:href="#Layer0_0_MEMBER_93_1_STROKES"/>
</g>

<g transform="matrix( 1, 0, 0, 1, 608.1,299.5) ">
<use xlink:href="#Clamp_ai_Layer_2__Path__11"/>
</g>

<g transform="matrix( 1, 0, 0, 1, 610.9,299.8) ">
<use xlink:href="#Clamp_ai_Layer_2__Path__10"/>
</g>

<g transform="matrix( 1, 0, 0, 1, 561.4,308.7) ">
<use xlink:href="#Clamp_ai_Layer_2__Path__9"/>
</g>

<g transform="matrix( 1, 0, 0, 1, 0,-196.95) ">
<use xlink:href="#Layer0_0_MEMBER_97_1_STROKES"/>
</g>

<g transform="matrix( 1, 0, 0, 1, 0,-196.95) ">
<use xlink:href="#Layer0_0_MEMBER_98_1_STROKES"/>
</g>

<g transform="matrix( 1, 0, 0, 1, 0,-196.95) ">
<use xlink:href="#Layer0_0_MEMBER_99_1_STROKES"/>
</g>

<g transform="matrix( 1, 0, 0, 1, 605.95,299.35) ">
<use xlink:href="#Clamp_ai_Layer_2__Path__5"/>
</g>

<g transform="matrix( 1, 0, 0, 1, 625.65,303.8) ">
<use xlink:href="#Clamp_ai_Layer_2__Path__4"/>
</g>

<g transform="matrix( 1, 0, 0, 1, 624.3,303.3) ">
<use xlink:href="#Clamp_ai_Layer_2__Path__3"/>
</g>

<g transform="matrix( 1, 0, 0, 1, 623.8,303.05) ">
<use xlink:href="#Clamp_ai_Layer_2__Path__2"/>
</g>

<g transform="matrix( 1, 0, 0, 1, 629.9,305.85) ">
<use xlink:href="#Clamp_ai_Layer_2__Path__1"/>
</g>

<g transform="matrix( 1, 0, 0, 1, 627.9,304.85) ">
<use xlink:href="#Clamp_ai_Layer_2__Path_"/>
</g>
</svg>
